<svg width="217" height="217" viewBox="0 0 217 217" fill="none" xmlns="http://www.w3.org/2000/svg">
<mask id="mask0" mask-type="alpha" maskUnits="userSpaceOnUse" x="0" y="0" width="217" height="217">
<path d="M0 0.0634766H216.639V216.677H0V0.0634766Z" fill="white"/>
</mask>
<g mask="url(#mask0)">
<path fill-rule="evenodd" clip-rule="evenodd" d="M108.32 0.0634766C78.9018 0.0634766 75.2131 0.188169 63.6596 0.71532C52.1302 1.24118 44.2561 3.07245 37.3662 5.75033C30.2432 8.51809 24.2025 12.2219 18.1802 18.2437C12.1584 24.2659 8.45461 30.3067 5.68686 37.4296C3.00897 44.3196 1.1777 52.1937 0.651843 63.7231C0.124693 75.2765 0 78.9653 0 108.383C0 137.801 0.124693 141.49 0.651843 153.043C1.1777 164.573 3.00897 172.447 5.68686 179.337C8.45461 186.46 12.1584 192.5 18.1802 198.523C24.2025 204.544 30.2432 208.248 37.3662 211.016C44.2561 213.694 52.1302 215.525 63.6596 216.051C75.2131 216.578 78.9018 216.703 108.32 216.703C137.738 216.703 141.426 216.578 152.98 216.051C164.509 215.525 172.383 213.694 179.273 211.016C186.396 208.248 192.437 204.544 198.459 198.523C204.481 192.5 208.185 186.46 210.953 179.337C213.63 172.447 215.462 164.573 215.987 153.043C216.515 141.49 216.639 137.801 216.639 108.383C216.639 78.9653 216.515 75.2765 215.987 63.7231C215.462 52.1937 213.63 44.3196 210.953 37.4296C208.185 30.3067 204.481 24.2659 198.459 18.2437C192.437 12.2219 186.396 8.51809 179.273 5.75033C172.383 3.07245 164.509 1.24118 152.98 0.71532C141.426 0.188169 137.738 0.0634766 108.32 0.0634766ZM108.32 19.5805C137.242 19.5805 140.668 19.691 152.09 20.2121C162.651 20.6937 168.387 22.4583 172.204 23.9417C177.26 25.9067 180.868 28.254 184.658 32.0446C188.449 35.8349 190.796 39.4432 192.761 44.4993C194.244 48.3162 196.009 54.0516 196.491 64.6127C197.012 76.0346 197.122 79.4606 197.122 108.383C197.122 137.306 197.012 140.732 196.491 152.154C196.009 162.715 194.244 168.45 192.761 172.267C190.796 177.323 188.449 180.931 184.658 184.722C180.868 188.512 177.26 190.86 172.204 192.825C168.387 194.308 162.651 196.073 152.09 196.554C140.67 197.075 137.244 197.186 108.32 197.186C79.395 197.186 75.9698 197.075 64.5492 196.554C53.9882 196.073 48.2527 194.308 44.4358 192.825C39.3797 190.86 35.7714 188.512 31.9812 184.722C28.1909 180.931 25.8433 177.323 23.8783 172.267C22.3948 168.45 20.6302 162.715 20.1487 152.154C19.6275 140.732 19.517 137.306 19.517 108.383C19.517 79.4606 19.6275 76.0346 20.1487 64.6127C20.6302 54.0516 22.3948 48.3162 23.8783 44.4993C25.8433 39.4432 28.1905 35.8349 31.9812 32.0446C35.7714 28.254 39.3797 25.9067 44.4358 23.9417C48.2527 22.4583 53.9882 20.6937 64.5492 20.2121C75.9711 19.691 79.3971 19.5805 108.32 19.5805Z" fill="white"/>
</g>
<path fill-rule="evenodd" clip-rule="evenodd" d="M108.351 145.194C88.0031 145.194 71.5084 128.699 71.5084 108.352C71.5084 88.0041 88.0031 71.5094 108.351 71.5094C128.698 71.5094 145.193 88.0041 145.193 108.352C145.193 128.699 128.698 145.194 108.351 145.194ZM108.351 51.5947C77.0044 51.5947 51.5938 77.0054 51.5938 108.352C51.5938 139.698 77.0044 165.108 108.351 165.108C139.697 165.108 165.107 139.698 165.107 108.352C165.107 77.0054 139.697 51.5947 108.351 51.5947Z" fill="white"/>
<path fill-rule="evenodd" clip-rule="evenodd" d="M185.741 56.746C185.741 65.2949 178.811 72.2248 170.262 72.2248C161.714 72.2248 154.783 65.2949 154.783 56.746C154.783 48.197 161.714 41.2666 170.262 41.2666C178.811 41.2666 185.741 48.197 185.741 56.746Z" fill="white"/>
</svg>
