<svg width="207" height="206" viewBox="0 0 207 206" fill="none" xmlns="http://www.w3.org/2000/svg">
<path d="M43.7009 65.0117H0.359375V205.872H43.7009V65.0117Z" fill="white"/>
<path d="M171.964 66.6636C171.477 66.51 171.016 66.3435 170.504 66.2026C169.889 66.0618 169.275 65.9465 168.647 65.8441C166.214 65.3575 163.551 65.0117 160.426 65.0117C133.714 65.0117 116.772 84.4376 111.189 91.9416V65.0117H65.3711V205.872H111.189V129.039C111.189 129.039 145.815 80.8137 160.426 116.234C160.426 147.85 160.426 205.872 160.426 205.872H206.231V110.817C206.231 89.5342 191.646 71.7986 171.964 66.6636Z" fill="white"/>
<path d="M22.0302 43.3406C33.9986 43.3406 43.7009 33.6382 43.7009 21.6698C43.7009 9.70136 33.9986 -0.000976562 22.0302 -0.000976562C10.0617 -0.000976562 0.359375 9.70136 0.359375 21.6698C0.359375 33.6382 10.0617 43.3406 22.0302 43.3406Z" fill="white"/>
</svg>
