<?xml version="1.0" standalone="no"?>
<!DOCTYPE svg PUBLIC "-//W3C//DTD SVG 20010904//EN"
 "http://www.w3.org/TR/2001/REC-SVG-20010904/DTD/svg10.dtd">
<svg version="1.0" xmlns="http://www.w3.org/2000/svg"
 width="210.000000pt" height="164.000000pt" viewBox="0 0 210.000000 164.000000"
 preserveAspectRatio="xMidYMid meet">

<g transform="translate(0.000000,164.000000) scale(0.100000,-0.100000)"
fill="#000000" stroke="none">
<path d="M687 1463 c-169 -69 -306 -127 -305 -128 2 -2 138 42 303 96 165 54
303 99 307 99 5 0 8 -241 8 -536 0 -507 -1 -536 -17 -529 -72 27 -577 194
-580 191 -2 -2 132 -58 297 -126 l300 -122 352 143 c194 78 358 146 364 151
17 13 18 573 1 586 -10 8 -674 285 -712 297 -5 2 -148 -53 -318 -122z m868
-216 c53 -22 60 -28 63 -56 l3 -31 -74 0 c-66 0 -88 5 -196 50 -67 28 -124 50
-126 50 -3 0 -5 -119 -5 -264 l0 -265 143 59 142 59 3 45 3 46 -95 0 -96 0 0
55 0 55 150 0 150 0 0 -139 c0 -123 -2 -139 -17 -144 -10 -3 -123 -48 -252
-101 -128 -53 -238 -96 -242 -96 -10 0 -13 843 -3 852 5 5 124 -41 449 -175z"/>
<path d="M645 1329 c-121 -49 -230 -94 -242 -99 -21 -9 -23 -16 -23 -95 l0
-86 53 3 52 3 5 49 c5 47 7 50 48 67 l42 18 0 -247 0 -247 55 -22 55 -21 0
289 0 290 43 18 42 18 5 -106 c3 -58 8 -105 13 -103 4 1 27 2 52 2 l45 0 0
180 c0 138 -3 180 -12 179 -7 0 -112 -41 -233 -90z"/>
<path d="M695 406 c-8 -19 -17 -52 -21 -73 -5 -31 -12 -42 -35 -50 -16 -6 -33
-23 -40 -40 -19 -47 -25 -57 -39 -61 -10 -4 -11 6 -6 46 6 50 6 50 -23 57 -34
7 -66 -6 -81 -35 -16 -29 -30 -24 -30 10 0 41 -30 40 -65 -2 l-26 -33 6 33 c5
25 3 32 -9 32 -14 0 -18 -9 -31 -75 -6 -29 5 -65 19 -65 7 0 23 24 35 53 18
40 25 47 28 32 7 -29 23 -45 43 -45 10 0 20 -9 23 -20 6 -22 51 -28 62 -10 4
7 11 8 18 2 16 -13 129 -13 144 -1 7 7 13 6 18 -1 8 -14 48 -13 63 2 8 8 15 8
25 0 8 -7 42 -11 79 -10 l65 2 14 40 c16 44 39 60 39 26 0 -26 28 -24 44 4 8
14 8 20 -1 23 -7 2 -10 10 -7 18 3 7 1 16 -5 20 -19 11 -50 -5 -67 -33 l-15
-27 5 33 c5 28 3 33 -11 30 -11 -2 -21 -20 -28 -48 -12 -51 -50 -79 -82 -61
-16 9 -15 11 9 20 56 21 62 91 8 91 -34 0 -70 -40 -70 -77 0 -26 -25 -42 -42
-25 -8 8 -4 27 15 69 38 86 50 139 37 163 -17 32 -49 25 -65 -14z m45 -17 c0
-29 -21 -101 -33 -114 -8 -9 -5 33 9 108 7 32 24 36 24 6z m-229 -182 c-12
-31 -41 -37 -41 -8 0 10 10 31 23 47 20 26 22 27 25 8 2 -11 -2 -32 -7 -47z
m307 27 c-25 -25 -42 -14 -22 14 12 17 19 21 27 13 8 -8 7 -16 -5 -27z m-150
-11 c-2 -31 -7 -39 -25 -41 -28 -4 -31 22 -7 56 23 33 36 27 32 -15z"/>
<path d="M1836 418 c-8 -13 -17 -35 -20 -50 -3 -16 -8 -39 -11 -53 -3 -14 -11
-25 -18 -25 -20 0 -57 -43 -66 -76 -4 -16 -16 -31 -25 -32 -17 -4 -18 1 -12
52 6 47 5 56 -8 56 -9 0 -18 -12 -21 -27 -12 -59 -21 -78 -39 -81 -20 -4 -20
5 0 82 12 47 -21 29 -43 -24 -12 -27 -26 -50 -32 -50 -13 0 -13 12 -2 63 7 29
6 37 -5 37 -16 0 -34 -31 -34 -58 0 -10 -9 -27 -20 -37 -20 -18 -20 -17 -20
28 l0 47 -40 0 c-33 0 -40 -3 -40 -20 0 -14 7 -20 21 -20 15 0 20 -5 17 -22
-2 -19 -10 -24 -40 -26 -73 -6 -112 73 -73 148 18 34 43 50 79 50 25 0 28 -4
30 -45 2 -35 31 -23 34 13 5 47 -12 62 -68 62 -81 0 -130 -57 -130 -150 0 -44
5 -56 29 -81 25 -25 37 -29 82 -29 l52 0 -42 -45 c-22 -24 -41 -53 -41 -64 0
-26 25 -44 50 -36 23 7 59 75 60 112 0 29 46 61 63 44 16 -16 47 -14 54 5 5
13 7 13 14 2 11 -17 207 -21 228 -4 11 8 15 8 18 -1 6 -16 37 -17 63 -3 13 7
21 7 25 0 17 -27 105 -1 105 31 0 13 -7 11 -35 -7 -24 -15 -45 -12 -45 7 0 5
6 9 13 9 22 0 49 37 45 62 -2 17 -10 24 -31 26 -37 4 -65 -21 -73 -65 -4 -19
-13 -37 -21 -40 -30 -12 -31 20 -3 81 47 104 51 176 10 176 -11 0 -26 -10 -34
-22z m20 -109 l-14 -34 -1 42 c-1 23 4 54 11 70 l12 28 4 -36 c2 -20 -4 -52
-12 -70z m104 -64 c0 -8 -9 -19 -20 -25 -17 -9 -20 -8 -20 8 0 21 19 44 32 36
4 -3 8 -12 8 -19z m-160 -19 c0 -33 -20 -62 -33 -49 -11 11 -8 58 5 71 20 20
28 14 28 -22z m-404 -160 c-16 -37 -36 -48 -36 -19 0 17 40 66 47 59 2 -2 -3
-20 -11 -40z"/>
<path d="M125 401 c-32 -13 -47 -37 -43 -68 4 -39 32 -37 33 2 0 24 5 31 33
39 18 5 35 6 39 3 3 -4 -1 -52 -10 -106 -21 -124 -21 -121 3 -121 21 0 21 0
40 124 16 110 14 106 77 106 39 0 54 4 51 13 -5 14 -191 21 -223 8z"/>
<path d="M1667 353 c-16 -15 -6 -33 18 -33 18 0 25 5 25 20 0 20 -28 28 -43
13z"/>
<path d="M1083 293 c-7 -3 -13 -10 -13 -17 0 -7 -13 -33 -29 -57 -36 -53 -28
-75 10 -30 27 32 27 33 38 12 10 -18 9 -21 -9 -21 -15 0 -20 -5 -18 -17 5 -25
47 -23 64 2 12 18 11 26 -6 58 -11 20 -17 43 -14 51 6 16 -5 25 -23 19z"/>
</g>
</svg>
