<svg width="236" height="195" viewBox="0 0 236 195" fill="none" xmlns="http://www.w3.org/2000/svg">
<path d="M74.5852 194.85C163.404 194.85 211.984 120.039 211.984 55.1637C211.984 53.0388 211.984 50.9235 211.843 48.8178C221.294 41.868 229.452 33.2629 235.935 23.4055C227.122 27.3757 217.772 29.9794 208.199 31.1297C218.28 24.9942 225.825 15.3441 229.43 3.97534C219.95 9.69388 209.58 13.724 198.766 15.8918C183.797 -0.289778 160.012 -4.25028 140.748 6.23115C121.484 16.7126 111.531 39.0293 116.471 60.6673C77.644 58.6884 41.4686 40.0438 16.9481 9.37366C4.13105 31.8058 10.6777 60.5032 31.8987 74.9097C24.2138 74.6781 16.6965 72.5705 9.98115 68.7648C9.98115 68.9658 9.98115 69.1763 9.98115 69.3869C9.98744 92.7566 26.191 112.885 48.7228 117.512C41.6135 119.484 34.1543 119.772 26.9183 118.355C33.2445 138.354 51.3738 152.054 72.0338 152.448C54.9341 166.111 33.8104 173.528 12.0618 173.506C8.21969 173.498 4.3813 173.262 0.566406 172.797C22.65 187.205 48.3454 194.847 74.5852 194.812" fill="white"/>
</svg>
