<svg width="261" height="185" viewBox="0 0 261 185" fill="none" xmlns="http://www.w3.org/2000/svg">
<path d="M216.705 0.705078H44.6724C33.0007 0.705078 21.8069 5.44898 13.5538 13.8932C5.30064 22.3374 0.664062 33.7902 0.664062 45.7322V139.879C0.664062 151.822 5.30064 163.274 13.5538 171.719C21.8069 180.163 33.0007 184.907 44.6724 184.907H216.705C228.376 184.907 239.57 180.163 247.824 171.719C256.077 163.274 260.713 151.822 260.713 139.879V45.7322C260.713 33.7902 256.077 22.3374 247.824 13.8932C239.57 5.44898 228.376 0.705078 216.705 0.705078ZM181.618 94.6069L103.604 135.541C103.3 135.702 102.961 135.78 102.619 135.769C102.277 135.757 101.944 135.657 101.651 135.477C101.358 135.296 101.115 135.041 100.946 134.737C100.776 134.433 100.686 134.09 100.683 133.74V51.8722C100.686 51.5222 100.776 51.1788 100.946 50.8748C101.115 50.5706 101.358 50.3161 101.651 50.1355C101.944 49.9547 102.277 49.854 102.619 49.8427C102.961 49.8314 103.3 49.9101 103.604 50.0711L181.618 91.0048C181.946 91.1765 182.221 91.4375 182.413 91.7588C182.605 92.0802 182.706 92.4497 182.706 92.8263C182.706 93.203 182.605 93.5724 182.413 93.8938C182.221 94.2152 181.946 94.4761 181.618 94.6479V94.6069Z" fill="white"/>
</svg>
