<svg width="181" height="158" viewBox="0 0 181 158" fill="none" xmlns="http://www.w3.org/2000/svg">
<path d="M41.6 16.6C19.0667 25.8 0.799994 33.5333 0.933327 33.6667C1.19999 33.9333 19.3333 28.0667 41.3333 20.8667C63.3333 13.6667 81.7333 7.66665 82.2667 7.66665C82.9333 7.66665 83.3333 39.8 83.3333 79.1333C83.3333 146.733 83.2 150.6 81.0667 149.667C71.4667 146.067 4.13333 123.8 3.73333 124.2C3.46666 124.467 21.3333 131.933 43.3333 141L83.3333 157.267L130.267 138.2C156.133 127.8 178 118.733 178.8 118.067C181.067 116.333 181.2 41.6667 178.933 39.9333C177.6 38.8667 89.0667 1.93332 84 0.333321C83.3333 0.0666544 64.2667 7.39999 41.6 16.6ZM157.333 45.4C164.4 48.3333 165.333 49.1333 165.733 52.8667L166.133 57H156.267C147.467 57 144.533 56.3333 130.133 50.3333C121.2 46.6 113.6 43.6667 113.333 43.6667C112.933 43.6667 112.667 59.5333 112.667 78.8667V114.2L131.733 106.333L150.667 98.4667L151.067 92.4667L151.467 86.3333H138.8H126V79V71.6667H146H166V90.2C166 106.6 165.733 108.733 163.733 109.4C162.4 109.8 147.333 115.8 130.133 122.867C113.067 129.933 98.4 135.667 97.8667 135.667C96.5333 135.667 96.1333 23.2667 97.4667 22.0667C98.1333 21.4 114 27.5333 157.333 45.4Z" fill="black"/>
<path d="M36 34.4667C19.8667 41 5.33332 47 3.73332 47.6667C0.933323 48.8667 0.666656 49.8 0.666656 60.3333V71.8L7.73332 71.4L14.6667 71L15.3333 64.4667C16 58.2 16.2667 57.8 21.7333 55.5333L27.3333 53.1333V86.0667V119L34.6667 121.933L42 124.733V86.2V47.5333L47.7333 45.1333L53.3333 42.7333L54 56.8667C54.4 64.6 55.0667 70.8667 55.7333 70.6C56.2667 70.4667 59.3333 70.3333 62.6667 70.3333H68.6667V46.3333C68.6667 27.9333 68.2667 22.3333 67.0667 22.4667C66.1333 22.4667 52.1333 27.9333 36 34.4667Z" fill="black"/>
</svg>
